<svg id="svg" xmlns="http://www.w3.org/2000/svg" xmlns:xlink="http://www.w3.org/1999/xlink" width="100%" height="100%" viewBox="0, 0, 400,400"><g id="svgg"><path id="path0" d="M191.111 18.444 L 191.111 30.777 176.250 30.805 L 161.389 30.833 161.361 42.750 L 161.332 54.667 176.222 54.667 L 191.111 54.667 191.111 75.341 C 191.111 94.979,191.101 96.012,190.917 95.957 C 190.810 95.925,190.022 95.723,189.167 95.509 C 185.212 94.518,181.350 92.948,177.778 90.881 C 175.607 89.624,172.806 87.711,172.625 87.360 C 172.231 86.599,167.029 82.704,163.237 80.332 C 160.995 78.929,158.778 77.434,157.757 76.635 C 153.154 73.038,150.742 71.442,144.333 67.751 C 138.470 64.373,132.877 62.163,123.722 59.606 C 118.445 58.133,116.855 57.949,109.389 57.951 C 103.830 57.952,100.649 58.193,94.667 59.065 C 76.123 61.768,62.306 68.569,49.662 81.217 C 46.471 84.409,40.095 92.413,40.378 92.871 C 40.409 92.921,40.307 93.151,40.150 93.381 C 39.994 93.611,39.691 94.157,39.476 94.594 C 39.262 95.031,38.847 95.789,38.553 96.278 C 37.261 98.435,35.539 102.950,33.682 109.056 C 30.950 118.037,29.319 133.831,29.877 145.889 C 30.443 158.105,30.981 162.044,33.402 171.722 C 36.632 184.632,43.000 196.553,53.552 209.444 C 56.729 213.325,60.892 219.147,62.690 222.222 C 65.284 226.658,66.093 228.178,66.787 229.918 L 66.998 230.446 66.582 230.270 C 66.354 230.172,65.817 229.951,65.389 229.778 C 61.766 228.313,58.911 226.774,56.556 225.017 C 55.853 224.493,54.858 223.776,54.346 223.425 C 53.833 223.073,53.205 222.589,52.948 222.349 C 51.392 220.890,49.173 221.226,48.277 223.056 C 48.077 223.465,48.052 223.867,47.968 228.167 C 47.713 241.163,48.132 246.834,50.175 258.034 C 52.164 268.938,53.409 273.303,55.052 275.131 C 55.329 275.439,55.556 275.741,55.556 275.803 C 55.556 276.066,56.492 276.734,57.889 277.468 C 58.714 277.901,60.539 278.890,61.944 279.667 C 72.659 285.585,78.501 288.147,89.944 291.948 C 98.266 294.712,101.368 295.510,112.471 297.744 L 117.331 298.722 116.749 298.908 C 109.752 301.135,105.869 302.591,98.778 305.643 C 87.600 310.455,81.174 313.477,75.999 316.356 C 74.625 317.120,72.875 318.084,72.111 318.497 C 66.686 321.432,62.816 323.792,60.243 325.733 C 59.724 326.124,59.210 326.444,59.101 326.444 C 58.189 326.444,47.692 336.444,44.637 340.222 C 40.264 345.632,40.152 345.779,38.663 348.111 C 36.840 350.966,36.642 351.273,36.449 351.556 C 36.190 351.933,35.134 353.631,34.860 354.111 C 34.737 354.325,34.387 354.950,34.082 355.500 C 33.776 356.050,33.003 357.375,32.363 358.444 C 31.724 359.514,31.008 360.714,30.772 361.111 C 29.503 363.249,26.772 369.295,26.499 370.568 C 26.371 371.169,25.280 374.139,24.004 377.362 C 23.390 378.913,23.222 379.461,23.221 379.918 C 23.220 380.238,23.146 380.625,23.057 380.778 C 22.012 382.568,22.102 383.564,23.430 384.945 C 24.473 386.029,25.765 386.339,26.838 385.764 L 27.278 385.527 202.344 385.552 L 377.410 385.577 377.968 385.294 C 378.938 384.802,379.535 383.924,379.549 382.969 C 379.554 382.634,379.633 382.481,379.937 382.214 C 381.028 381.256,381.166 379.996,380.386 378.103 C 379.503 375.961,378.326 372.787,377.608 370.611 C 376.489 367.219,374.664 363.337,372.437 359.611 C 371.815 358.572,370.734 356.726,370.034 355.509 C 367.942 351.875,364.451 346.473,362.954 344.556 C 357.598 337.693,354.249 334.202,347.365 328.302 C 346.252 327.348,345.227 326.507,345.087 326.433 C 344.948 326.359,344.458 326.014,344.000 325.666 C 341.591 323.837,337.577 321.395,332.222 318.497 C 331.458 318.084,329.709 317.120,328.334 316.356 C 323.160 313.477,316.733 310.455,305.556 305.643 C 298.464 302.591,294.581 301.135,287.585 298.908 L 287.003 298.722 291.862 297.744 C 302.966 295.510,306.067 294.712,314.389 291.948 C 325.833 288.147,331.675 285.585,342.389 279.667 C 343.794 278.890,345.619 277.901,346.444 277.468 C 347.842 276.734,348.778 276.066,348.778 275.803 C 348.778 275.741,349.004 275.439,349.281 275.131 C 350.499 273.776,351.864 269.770,352.988 264.256 C 355.351 252.654,356.303 245.090,356.403 237.111 C 356.490 230.198,356.327 223.610,356.056 223.056 C 355.118 221.140,353.046 220.899,351.154 222.486 C 350.781 222.799,349.856 223.495,349.099 224.032 C 348.342 224.570,347.257 225.349,346.688 225.763 C 345.080 226.934,341.811 228.630,338.944 229.781 C 338.517 229.952,337.980 230.172,337.751 230.270 L 337.336 230.446 337.547 229.918 C 338.240 228.178,339.050 226.658,341.643 222.222 C 343.441 219.147,347.604 213.325,350.781 209.444 C 361.333 196.553,367.701 184.632,370.931 171.722 C 373.353 162.044,373.890 158.105,374.456 145.889 C 375.022 133.670,373.320 117.553,370.496 108.389 C 370.345 107.900,369.990 106.600,369.706 105.500 C 368.815 102.045,367.251 98.427,365.015 94.646 C 364.701 94.115,364.444 93.652,364.444 93.617 C 364.444 93.420,363.183 91.556,363.049 91.556 C 362.961 91.556,362.889 91.455,362.889 91.333 C 362.889 91.081,359.854 87.009,358.044 84.833 C 353.577 79.464,345.765 73.000,338.444 68.618 C 328.587 62.717,317.872 59.656,301.778 58.146 C 297.462 57.741,288.314 57.913,285.889 58.446 C 279.157 59.924,271.235 62.352,266.611 64.353 C 261.670 66.492,253.918 71.088,248.934 74.833 C 244.973 77.810,243.835 78.617,242.111 79.672 C 238.061 82.151,232.219 86.421,231.725 87.263 C 231.254 88.066,226.303 91.206,223.278 92.619 C 220.887 93.737,215.730 95.556,214.954 95.556 C 214.918 95.556,214.889 86.356,214.889 75.112 L 214.889 54.667 229.361 54.639 L 243.833 54.611 243.862 42.763 L 243.890 30.915 243.639 30.848 C 243.502 30.811,236.976 30.780,229.139 30.779 L 214.889 30.778 214.889 18.444 L 214.889 6.111 203.000 6.111 L 191.111 6.111 191.111 18.444 M114.278 90.157 C 118.415 90.825,125.713 92.657,125.263 92.915 C 125.210 92.945,124.742 93.109,124.222 93.278 C 112.056 97.249,100.394 109.098,92.715 125.291 C 92.428 125.895,91.946 126.914,91.643 127.556 C 87.226 136.900,83.508 149.679,82.725 158.206 C 81.801 168.278,82.391 177.607,84.717 189.697 C 87.669 205.045,87.881 207.148,87.382 216.144 L 87.179 219.789 86.908 219.033 C 84.715 212.917,83.403 209.926,79.645 202.465 C 70.122 183.564,66.478 173.839,64.393 161.765 C 61.406 144.463,62.856 131.255,69.202 117.972 C 70.923 114.371,73.611 109.883,74.559 109.031 C 74.870 108.752,75.241 108.294,75.384 108.012 C 76.448 105.920,80.168 101.561,84.369 97.484 C 87.751 94.202,90.608 92.986,99.321 91.118 C 105.689 89.753,110.038 89.473,114.278 90.157 M298.389 90.000 C 300.291 90.220,302.954 90.686,305.444 91.234 C 315.746 93.505,317.112 94.263,323.634 101.333 C 326.786 104.750,327.648 105.829,328.786 107.778 C 329.053 108.236,329.505 108.836,329.791 109.111 C 330.702 109.991,332.874 113.556,334.596 117.000 C 340.825 129.458,342.542 141.268,340.493 157.556 C 338.776 171.194,334.991 181.924,324.679 202.382 C 320.929 209.823,319.293 213.503,317.723 218.029 L 317.151 219.677 316.951 216.144 C 316.447 207.212,316.667 205.031,319.617 189.697 C 321.943 177.607,322.533 168.278,321.608 158.206 C 320.825 149.679,317.107 136.900,312.691 127.556 C 312.388 126.914,311.905 125.895,311.619 125.291 C 303.940 109.098,292.277 97.249,280.111 93.278 C 279.592 93.109,279.123 92.945,279.070 92.915 C 278.921 92.829,281.841 91.924,284.000 91.387 C 289.798 89.943,294.207 89.518,298.389 90.000 M171.617 111.280 C 174.600 113.840,176.621 116.435,177.545 118.890 C 179.580 124.301,180.607 131.311,180.343 137.992 C 180.012 146.358,179.772 148.024,177.372 158.556 C 171.397 184.774,170.206 191.381,169.279 203.444 C 168.570 212.657,169.026 227.659,170.289 236.667 C 171.020 241.878,171.734 244.528,173.523 248.661 C 174.315 250.492,174.439 250.859,174.333 251.056 C 173.855 251.950,168.074 252.491,161.780 252.231 C 152.064 251.829,145.029 250.684,134.389 247.772 C 126.020 245.482,123.503 244.656,113.214 240.824 L 111.484 240.180 111.848 239.035 C 112.797 236.044,113.467 231.971,114.552 222.611 C 115.914 210.868,115.917 209.544,114.612 199.778 C 113.041 188.025,113.191 180.150,115.171 170.444 C 119.588 148.791,128.430 133.405,143.778 120.667 C 150.953 114.712,156.799 111.737,165.716 109.506 L 168.932 108.701 169.549 109.368 C 169.889 109.735,170.819 110.595,171.617 111.280 M241.611 110.288 C 259.761 115.700,277.261 133.784,284.773 154.889 C 290.439 170.808,291.822 183.428,289.668 199.556 C 288.256 210.132,288.279 211.393,290.175 226.667 C 290.972 233.088,291.871 237.802,292.720 240.010 C 292.772 240.146,292.638 240.245,292.144 240.436 C 276.006 246.657,261.582 250.530,250.556 251.604 C 245.401 252.106,244.310 252.160,239.333 252.158 C 234.096 252.155,233.015 252.079,231.202 251.584 C 229.662 251.163,229.677 251.281,230.811 248.661 C 232.599 244.528,233.314 241.878,234.044 236.667 C 235.307 227.659,235.763 212.657,235.055 203.444 C 234.127 191.381,232.936 184.774,226.961 158.556 C 224.562 148.024,224.321 146.358,223.990 137.992 C 223.726 131.311,224.753 124.301,226.789 118.890 C 227.713 116.435,229.734 113.840,232.717 111.280 C 233.514 110.596,234.442 109.738,234.778 109.374 L 235.389 108.711 237.833 109.301 C 239.178 109.625,240.878 110.069,241.611 110.288 " stroke="none" fill="#FFFFFF" fill-rule="evenodd"></path></g></svg>