<svg id="svg" xmlns="http://www.w3.org/2000/svg" xmlns:xlink="http://www.w3.org/1999/xlink" width="100%" height="100%" viewBox="0, 0, 400,400"><g id="svgg"><path id="path0" d="M80.287 13.207 C 80.244 13.277,80.114 13.333,79.997 13.333 C 79.535 13.333,78.444 14.703,78.444 15.283 C 78.444 15.355,78.220 15.500,77.946 15.604 C 76.152 16.290,75.674 18.648,75.331 28.500 C 74.919 40.366,75.264 52.550,76.288 62.222 C 77.734 75.894,82.740 97.990,86.947 109.278 C 88.008 112.124,89.057 114.672,89.210 114.775 C 89.258 114.807,89.650 115.567,90.082 116.464 C 90.791 117.939,90.908 118.116,91.294 118.311 C 91.530 118.430,92.922 119.065,94.389 119.722 C 95.856 120.379,97.081 120.955,97.111 121.002 C 97.193 121.126,105.854 124.954,108.111 125.864 C 116.148 129.102,126.608 132.336,133.754 133.793 C 134.137 133.871,134.530 134.021,134.626 134.127 C 134.822 134.345,134.961 133.666,133.291 140.667 C 132.773 142.836,132.018 146.236,131.612 148.222 C 129.569 158.231,126.093 171.910,123.792 179.000 C 119.308 192.814,108.070 222.478,102.811 234.376 C 99.513 241.841,95.856 248.866,89.370 260.200 C 83.797 269.941,79.796 276.003,76.257 280.071 C 73.178 283.610,71.095 285.923,69.564 287.500 C 68.615 288.478,67.494 289.634,67.074 290.070 L 66.310 290.863 68.016 291.431 C 68.954 291.744,70.047 292.096,70.444 292.214 C 71.132 292.418,71.994 292.726,73.722 293.386 C 75.821 294.188,82.391 296.126,87.444 297.434 C 100.752 300.878,113.872 302.437,129.611 302.444 L 132.944 302.445 132.316 302.824 C 123.763 307.982,108.069 314.524,96.876 317.598 C 91.581 319.053,85.239 320.479,80.291 321.328 C 77.628 321.785,65.683 323.437,63.389 323.665 C 62.026 323.801,62.104 323.763,60.556 325.048 C 53.272 331.095,47.797 336.314,44.637 340.222 C 40.264 345.632,40.152 345.779,38.663 348.111 C 36.840 350.966,36.642 351.273,36.449 351.556 C 36.190 351.933,35.134 353.631,34.860 354.111 C 34.737 354.325,34.387 354.950,34.082 355.500 C 33.776 356.050,33.003 357.375,32.363 358.444 C 31.724 359.514,31.008 360.714,30.772 361.111 C 29.503 363.249,26.772 369.295,26.499 370.568 C 26.371 371.169,25.280 374.139,24.004 377.362 C 23.390 378.913,23.222 379.461,23.221 379.918 C 23.220 380.238,23.146 380.625,23.057 380.778 C 22.012 382.568,22.102 383.564,23.430 384.945 C 24.473 386.029,25.765 386.339,26.838 385.764 L 27.278 385.527 202.344 385.552 L 377.410 385.577 377.968 385.294 C 378.938 384.802,379.535 383.924,379.549 382.969 C 379.554 382.634,379.633 382.481,379.937 382.214 C 381.028 381.256,381.166 379.996,380.386 378.103 C 379.503 375.961,378.326 372.787,377.608 370.611 C 376.489 367.219,374.664 363.337,372.437 359.611 C 371.815 358.572,370.734 356.726,370.034 355.509 C 367.942 351.875,364.451 346.473,362.954 344.556 C 357.966 338.165,354.652 334.643,349.028 329.756 C 347.882 328.760,346.794 327.795,346.611 327.611 C 346.428 327.427,346.053 327.102,345.778 326.889 C 345.361 326.567,343.970 325.343,342.647 324.135 C 342.379 323.890,342.180 323.848,340.647 323.706 C 338.201 323.481,326.406 321.867,323.264 321.328 C 318.316 320.479,311.975 319.053,306.680 317.598 C 295.501 314.528,279.820 307.993,271.264 302.839 L 270.661 302.476 279.136 302.410 C 299.968 302.249,311.921 300.522,330.500 294.990 C 332.888 294.279,337.464 292.765,337.556 292.656 C 337.586 292.619,338.686 292.203,340.000 291.732 C 341.314 291.260,342.424 290.839,342.468 290.797 C 342.511 290.754,341.536 289.652,340.301 288.348 C 339.066 287.044,337.956 285.841,337.833 285.675 C 337.711 285.510,336.736 284.385,335.667 283.175 C 332.312 279.381,331.895 278.884,330.355 276.833 C 324.254 268.710,312.902 248.770,307.112 236.004 C 300.871 222.241,287.393 186.259,283.950 174.167 C 281.454 165.398,278.915 154.955,277.332 146.944 C 277.044 145.487,276.302 142.260,275.225 137.778 C 274.361 134.184,274.353 134.056,274.973 133.911 C 277.919 133.224,283.790 131.716,286.061 131.063 C 292.241 129.286,301.039 126.064,305.944 123.781 C 306.494 123.525,307.919 122.889,309.111 122.369 C 311.361 121.387,312.127 121.032,316.046 119.157 L 318.389 118.036 319.147 116.546 C 323.347 108.294,327.776 92.606,331.331 73.388 C 333.924 59.373,334.867 35.858,333.437 20.889 C 333.103 17.400,332.603 16.207,331.217 15.595 C 330.975 15.489,330.778 15.346,330.778 15.277 C 330.778 15.024,330.294 14.157,329.988 13.863 C 328.809 12.728,327.344 12.804,320.029 14.379 C 318.730 14.659,315.230 15.360,312.251 15.937 C 300.751 18.164,297.973 18.603,289.018 19.610 C 286.553 19.887,284.444 20.163,284.331 20.223 C 284.218 20.284,283.732 20.333,283.250 20.333 C 282.050 20.333,280.556 21.220,280.556 21.931 C 280.556 22.023,280.513 22.125,280.460 22.157 C 280.407 22.190,280.334 22.439,280.296 22.712 C 279.839 26.047,271.473 49.711,270.549 50.282 C 270.396 50.377,262.073 50.949,256.722 51.233 C 254.382 51.358,250.518 51.300,248.222 51.107 C 247.057 51.009,247.055 51.008,246.685 50.588 C 245.084 48.768,241.077 41.648,239.382 37.611 C 237.922 34.134,237.000 31.845,237.000 31.700 C 237.000 30.657,236.066 29.681,234.056 28.624 C 233.182 28.165,225.273 28.226,208.333 28.822 C 205.891 28.908,203.521 28.929,202.111 28.876 C 200.858 28.829,197.883 28.736,195.500 28.669 C 193.117 28.602,189.542 28.495,187.556 28.431 C 183.032 28.285,175.585 28.397,175.055 28.619 C 174.856 28.702,174.550 28.890,174.375 29.036 C 174.199 29.183,173.956 29.334,173.833 29.373 C 173.223 29.565,172.222 30.900,172.222 31.523 C 172.222 33.087,166.664 44.477,163.830 48.722 C 162.223 51.129,162.404 50.982,160.889 51.106 C 156.487 51.467,154.652 51.415,141.195 50.544 C 138.417 50.364,138.575 50.419,138.129 49.496 C 135.905 44.904,129.222 25.687,128.815 22.712 C 128.777 22.439,128.704 22.190,128.651 22.157 C 128.599 22.125,128.556 22.023,128.556 21.931 C 128.556 21.220,127.061 20.333,125.861 20.333 C 125.379 20.333,124.893 20.284,124.780 20.223 C 124.667 20.163,122.558 19.887,120.093 19.610 C 111.085 18.597,108.267 18.151,96.556 15.878 C 93.714 15.327,90.339 14.650,89.056 14.373 C 84.384 13.368,83.443 13.206,81.877 13.143 C 80.809 13.099,80.342 13.118,80.287 13.207 " stroke="none" fill="#000000" fill-rule="evenodd"></path></g></svg>