<svg id="svg" xmlns="http://www.w3.org/2000/svg" xmlns:xlink="http://www.w3.org/1999/xlink" width="100%" height="100%" viewBox="0, 0, 400,400"><g id="svgg"><path id="path0" d="M198.528 9.730 C 198.512 9.744,197.656 9.782,196.624 9.815 C 195.524 9.850,194.699 9.923,194.630 9.993 C 194.480 10.142,193.703 10.148,193.611 10.000 C 193.525 9.861,193.080 9.855,192.939 9.991 C 192.835 10.091,191.990 10.191,190.556 10.274 C 189.788 10.317,189.438 10.410,189.310 10.602 C 189.256 10.684,189.189 10.677,189.094 10.582 C 188.935 10.424,188.000 10.393,188.000 10.546 C 188.000 10.602,187.688 10.672,187.306 10.702 C 186.084 10.797,184.556 11.036,184.556 11.132 C 184.556 11.183,184.368 11.197,184.139 11.164 C 183.910 11.130,183.322 11.184,182.833 11.283 C 182.344 11.383,181.694 11.490,181.389 11.520 C 181.083 11.551,180.786 11.621,180.728 11.677 C 180.670 11.732,180.411 11.778,180.152 11.778 C 179.883 11.778,179.611 11.849,179.516 11.944 C 179.412 12.048,179.139 12.111,178.792 12.111 C 178.486 12.111,178.204 12.161,178.167 12.222 C 178.129 12.283,177.946 12.333,177.760 12.333 C 177.574 12.333,177.265 12.404,177.072 12.491 C 176.880 12.578,176.547 12.675,176.333 12.706 C 175.587 12.813,174.981 12.974,174.858 13.098 C 174.789 13.166,174.528 13.222,174.278 13.222 C 174.027 13.222,173.775 13.268,173.717 13.325 C 173.619 13.420,173.099 13.547,171.911 13.767 C 171.649 13.816,171.376 13.913,171.306 13.983 C 171.235 14.054,171.016 14.111,170.818 14.111 C 170.620 14.111,170.427 14.161,170.389 14.222 C 170.351 14.283,170.186 14.334,170.021 14.334 C 169.857 14.334,169.579 14.409,169.404 14.501 C 169.229 14.592,168.948 14.667,168.779 14.667 C 168.610 14.667,168.409 14.742,168.333 14.833 C 168.255 14.927,168.013 15.000,167.778 15.000 C 167.542 15.000,167.300 15.073,167.222 15.167 C 167.146 15.258,166.948 15.333,166.781 15.333 C 166.615 15.333,166.386 15.436,166.272 15.562 C 166.145 15.703,165.981 15.770,165.848 15.735 C 165.727 15.703,165.510 15.773,165.356 15.895 C 165.205 16.014,164.941 16.111,164.769 16.111 C 164.598 16.111,164.427 16.161,164.389 16.222 C 164.351 16.283,164.204 16.333,164.063 16.333 C 163.921 16.333,163.743 16.408,163.667 16.500 C 163.589 16.594,163.346 16.667,163.111 16.667 C 162.876 16.667,162.634 16.739,162.556 16.833 C 162.479 16.925,162.301 17.000,162.160 17.000 C 162.018 17.000,161.875 17.044,161.841 17.099 C 161.807 17.153,161.642 17.231,161.473 17.272 C 161.028 17.379,160.556 17.597,160.556 17.694 C 160.556 17.740,160.443 17.779,160.306 17.781 C 160.168 17.783,159.958 17.858,159.840 17.948 C 159.721 18.038,159.521 18.113,159.395 18.115 C 159.270 18.117,159.070 18.192,158.951 18.281 C 158.832 18.371,158.650 18.444,158.546 18.444 C 158.442 18.444,158.328 18.519,158.293 18.611 C 158.257 18.706,158.091 18.778,157.910 18.778 C 157.731 18.778,157.501 18.876,157.389 19.000 C 157.278 19.122,157.097 19.222,156.985 19.222 C 156.811 19.222,155.854 19.614,155.333 19.899 C 154.630 20.283,153.055 21.000,152.913 21.000 C 152.854 21.000,152.743 21.075,152.667 21.167 C 152.591 21.258,152.444 21.333,152.341 21.333 C 152.237 21.333,152.052 21.427,151.929 21.542 C 151.806 21.657,151.584 21.786,151.436 21.829 C 150.991 21.958,149.797 22.565,149.658 22.733 C 149.587 22.819,149.466 22.889,149.389 22.889 C 149.312 22.889,149.187 22.964,149.111 23.056 C 149.035 23.147,148.885 23.222,148.778 23.222 C 148.671 23.222,148.522 23.296,148.447 23.386 C 148.372 23.476,148.053 23.679,147.739 23.836 C 147.424 23.993,146.967 24.241,146.722 24.388 C 146.478 24.535,146.176 24.703,146.051 24.760 C 145.926 24.818,145.758 24.946,145.676 25.044 C 145.595 25.142,145.441 25.222,145.333 25.222 C 145.226 25.222,145.076 25.297,145.000 25.389 C 144.924 25.481,144.799 25.556,144.722 25.556 C 144.646 25.556,144.520 25.631,144.443 25.724 C 144.366 25.817,144.053 26.018,143.747 26.172 C 143.441 26.325,143.044 26.574,142.865 26.725 C 142.685 26.876,142.488 27.000,142.427 27.000 C 142.365 27.000,142.107 27.169,141.852 27.376 C 141.597 27.583,141.130 27.891,140.813 28.061 C 140.496 28.230,140.111 28.486,139.957 28.629 C 139.803 28.772,139.624 28.889,139.560 28.889 C 139.497 28.889,139.444 28.964,139.444 29.056 C 139.444 29.147,139.352 29.222,139.238 29.222 C 139.125 29.222,138.898 29.347,138.733 29.500 C 138.568 29.653,138.392 29.778,138.341 29.778 C 138.291 29.778,138.187 29.853,138.111 29.944 C 138.035 30.036,137.874 30.111,137.754 30.111 C 137.626 30.111,137.510 30.207,137.475 30.340 C 137.439 30.476,137.354 30.544,137.262 30.509 C 137.178 30.477,137.048 30.549,136.972 30.670 C 136.897 30.790,136.800 30.889,136.756 30.889 C 136.628 30.889,135.959 31.367,135.305 31.926 C 134.971 32.211,134.643 32.444,134.575 32.444 C 134.508 32.444,134.401 32.541,134.337 32.659 C 134.274 32.777,134.116 32.908,133.986 32.949 C 133.687 33.044,132.889 33.788,132.889 33.972 C 132.889 34.049,132.838 34.111,132.777 34.111 C 132.571 34.111,131.568 34.830,131.498 35.028 C 131.460 35.135,131.338 35.222,131.227 35.222 C 131.115 35.222,130.995 35.297,130.960 35.389 C 130.925 35.481,130.826 35.556,130.740 35.556 C 130.654 35.556,130.465 35.730,130.320 35.944 C 130.175 36.157,129.997 36.332,129.925 36.333 C 129.853 36.333,129.696 36.458,129.575 36.611 C 129.455 36.764,129.304 36.889,129.240 36.889 C 129.176 36.889,129.052 36.991,128.965 37.115 C 128.878 37.240,128.561 37.527,128.260 37.754 C 127.511 38.320,126.667 39.134,126.667 39.291 C 126.667 39.362,126.545 39.451,126.396 39.488 C 126.248 39.526,126.094 39.656,126.055 39.778 C 126.017 39.900,125.940 40.000,125.886 40.000 C 125.741 40.000,125.222 40.585,125.222 40.749 C 125.222 40.826,125.152 40.889,125.066 40.889 C 124.867 40.889,121.778 43.983,121.778 44.183 C 121.778 44.266,121.714 44.333,121.635 44.333 C 121.455 44.333,120.333 45.461,120.333 45.642 C 120.333 45.717,120.257 45.778,120.164 45.778 C 120.071 45.778,119.951 45.890,119.899 46.028 C 119.793 46.304,119.489 46.598,119.205 46.698 C 119.104 46.734,118.989 46.908,118.950 47.086 C 118.911 47.264,118.727 47.522,118.541 47.660 C 118.355 47.797,118.153 48.055,118.091 48.232 C 118.029 48.410,117.935 48.556,117.883 48.556 C 117.753 48.556,117.222 49.136,117.222 49.278 C 117.222 49.341,117.110 49.441,116.972 49.501 C 116.816 49.570,116.709 49.728,116.686 49.923 C 116.667 50.095,116.567 50.265,116.464 50.302 C 116.242 50.381,115.787 50.892,115.782 51.070 C 115.780 51.140,115.681 51.222,115.562 51.253 C 115.443 51.284,115.275 51.477,115.188 51.682 C 115.101 51.888,114.873 52.193,114.682 52.362 C 114.490 52.530,114.333 52.746,114.333 52.841 C 114.333 52.937,114.182 53.142,113.996 53.298 C 113.810 53.454,113.586 53.722,113.498 53.894 C 113.409 54.065,113.186 54.370,113.002 54.572 C 112.817 54.773,112.667 54.995,112.667 55.063 C 112.667 55.132,112.561 55.283,112.432 55.399 C 112.302 55.516,112.153 55.711,112.099 55.833 C 111.937 56.200,111.734 56.488,111.528 56.644 C 111.421 56.724,111.235 57.006,111.115 57.270 C 110.994 57.534,110.802 57.775,110.687 57.805 C 110.560 57.838,110.450 57.999,110.407 58.216 C 110.367 58.413,110.163 58.775,109.951 59.022 C 109.740 59.269,109.538 59.602,109.503 59.763 C 109.467 59.924,109.265 60.225,109.053 60.432 C 108.824 60.656,108.667 60.918,108.667 61.076 C 108.667 61.357,108.401 61.698,108.098 61.807 C 107.999 61.842,107.883 62.012,107.841 62.185 C 107.708 62.739,107.506 63.112,107.306 63.175 C 107.199 63.209,107.079 63.371,107.040 63.535 C 106.963 63.856,106.680 64.465,106.565 64.556 C 106.437 64.657,106.111 65.213,106.111 65.330 C 106.111 65.394,105.968 65.644,105.794 65.885 C 105.619 66.126,105.285 66.713,105.052 67.189 C 104.819 67.666,104.512 68.197,104.370 68.370 C 104.214 68.559,104.111 68.830,104.111 69.052 C 104.111 69.277,104.046 69.446,103.944 69.485 C 103.853 69.520,103.778 69.647,103.778 69.767 C 103.778 69.887,103.683 70.015,103.567 70.052 C 103.437 70.093,103.329 70.265,103.284 70.504 C 103.245 70.716,103.169 70.889,103.116 70.889 C 103.063 70.889,102.984 71.101,102.941 71.361 C 102.890 71.665,102.728 71.982,102.486 72.250 C 102.211 72.556,102.111 72.771,102.111 73.056 C 102.111 73.270,102.065 73.444,102.009 73.444 C 101.953 73.444,101.873 73.595,101.833 73.779 C 101.732 74.239,101.489 74.703,101.223 74.944 C 101.100 75.055,100.998 75.275,100.996 75.434 C 100.994 75.592,100.921 75.847,100.833 76.000 C 100.746 76.153,100.673 76.415,100.671 76.583 C 100.668 76.751,100.625 76.889,100.574 76.889 C 100.460 76.889,99.927 77.939,99.826 78.362 C 99.786 78.531,99.709 78.696,99.654 78.730 C 99.600 78.763,99.556 79.010,99.556 79.278 C 99.556 79.546,99.508 79.794,99.451 79.830 C 99.281 79.934,98.444 81.777,98.444 82.045 C 98.444 82.180,98.371 82.388,98.281 82.507 C 98.192 82.625,98.117 82.904,98.115 83.126 C 98.113 83.348,98.036 83.673,97.945 83.848 C 97.854 84.023,97.779 84.276,97.778 84.410 C 97.778 84.544,97.728 84.684,97.667 84.722 C 97.606 84.760,97.556 84.877,97.556 84.982 C 97.556 85.087,97.461 85.254,97.345 85.353 C 97.229 85.452,97.098 85.751,97.053 86.017 C 97.009 86.283,96.903 86.599,96.819 86.719 C 96.735 86.840,96.667 87.124,96.667 87.351 C 96.667 87.579,96.621 87.793,96.566 87.827 C 96.511 87.861,96.431 88.139,96.389 88.444 C 96.347 88.750,96.267 89.028,96.212 89.062 C 96.156 89.096,96.111 89.291,96.111 89.494 C 96.111 89.697,96.036 90.007,95.945 90.182 C 95.854 90.357,95.779 90.685,95.778 90.910 C 95.778 91.136,95.728 91.351,95.667 91.389 C 95.606 91.427,95.556 91.700,95.556 91.997 C 95.556 92.299,95.500 92.555,95.430 92.579 C 95.361 92.602,95.280 92.882,95.249 93.201 C 95.219 93.521,95.150 93.809,95.097 93.842 C 95.044 93.875,95.000 94.169,95.000 94.495 C 95.000 94.919,94.953 95.106,94.833 95.151 C 94.720 95.195,94.667 95.372,94.667 95.706 C 94.667 95.976,94.592 96.340,94.501 96.515 C 94.409 96.690,94.334 97.018,94.334 97.243 C 94.334 97.469,94.283 97.684,94.222 97.722 C 94.161 97.760,94.111 98.003,94.111 98.262 C 94.111 98.521,94.065 98.781,94.009 98.839 C 93.891 98.960,93.657 100.044,93.590 100.778 C 93.565 101.053,93.502 101.378,93.452 101.500 C 93.292 101.884,92.997 103.371,92.999 103.783 C 92.999 104.000,92.946 104.232,92.879 104.299 C 92.792 104.386,92.792 104.440,92.879 104.494 C 93.048 104.598,93.039 106.191,92.870 106.247 C 92.797 106.272,92.718 106.593,92.690 106.980 C 92.662 107.360,92.596 107.697,92.542 107.731 C 92.488 107.764,92.443 108.400,92.442 109.145 C 92.440 109.890,92.388 110.700,92.326 110.944 C 92.188 111.484,92.058 114.353,92.091 116.131 C 92.106 116.919,92.071 117.456,92.002 117.499 C 91.856 117.589,91.854 118.299,92.000 118.389 C 92.153 118.483,92.141 119.635,91.986 119.731 C 91.901 119.783,91.887 120.010,91.940 120.432 C 91.984 120.775,92.038 121.852,92.061 122.826 C 92.121 125.387,92.199 126.872,92.279 127.003 C 92.387 127.176,92.417 128.087,92.320 128.243 C 92.273 128.319,92.286 128.443,92.348 128.517 C 92.410 128.592,92.478 129.019,92.500 129.465 C 92.561 130.695,92.748 132.015,92.881 132.148 C 93.035 132.301,93.033 132.617,92.877 132.866 C 92.781 133.020,92.805 133.153,92.984 133.472 C 93.134 133.739,93.173 133.906,93.097 133.953 C 93.030 133.995,93.005 134.199,93.040 134.430 C 93.073 134.652,93.153 135.208,93.218 135.667 C 93.283 136.125,93.383 136.600,93.440 136.722 C 93.546 136.950,93.657 137.708,93.699 138.500 C 93.712 138.744,93.794 139.069,93.882 139.222 C 93.970 139.375,94.051 139.725,94.064 140.000 C 94.102 140.848,94.244 141.715,94.373 141.875 C 94.440 141.959,94.480 142.168,94.462 142.338 C 94.444 142.509,94.508 142.800,94.604 142.986 C 94.699 143.171,94.778 143.500,94.778 143.717 C 94.778 143.934,94.828 144.111,94.889 144.111 C 94.950 144.111,95.002 144.324,95.004 144.583 C 95.005 144.843,95.080 145.153,95.170 145.271 C 95.260 145.390,95.333 145.674,95.333 145.904 C 95.333 146.133,95.383 146.351,95.444 146.389 C 95.506 146.427,95.556 146.645,95.556 146.874 C 95.556 147.103,95.629 147.388,95.719 147.507 C 95.808 147.625,95.883 147.907,95.885 148.132 C 95.887 148.358,95.939 148.573,96.000 148.611 C 96.061 148.649,96.113 148.789,96.115 148.923 C 96.117 149.057,96.215 149.367,96.333 149.611 C 96.451 149.856,96.550 150.182,96.552 150.336 C 96.554 150.491,96.639 150.736,96.740 150.880 C 96.841 151.025,96.936 151.291,96.950 151.471 C 96.964 151.651,97.031 151.853,97.099 151.921 C 97.167 151.989,97.223 152.147,97.223 152.272 C 97.223 152.398,97.298 152.643,97.390 152.818 C 97.481 152.993,97.556 153.253,97.556 153.395 C 97.556 153.537,97.606 153.684,97.667 153.722 C 97.728 153.760,97.778 153.900,97.778 154.034 C 97.779 154.168,97.854 154.421,97.945 154.596 C 98.036 154.771,98.111 155.027,98.111 155.166 C 98.111 155.304,98.181 155.475,98.266 155.546 C 98.351 155.616,98.454 155.896,98.494 156.168 C 98.535 156.439,98.616 156.691,98.673 156.726 C 98.731 156.762,98.779 156.875,98.780 156.979 C 98.782 157.082,98.880 157.292,99.000 157.444 C 99.120 157.597,99.218 157.831,99.220 157.964 C 99.221 158.097,99.297 158.281,99.389 158.373 C 99.481 158.465,99.556 158.665,99.556 158.819 C 99.556 158.972,99.606 159.129,99.667 159.167 C 99.728 159.204,99.778 159.337,99.778 159.462 C 99.778 159.587,99.847 159.846,99.931 160.039 C 100.016 160.231,100.147 160.551,100.223 160.750 C 100.298 160.949,100.404 161.111,100.458 161.111 C 100.512 161.111,100.556 161.177,100.556 161.257 C 100.556 161.337,100.656 161.610,100.778 161.863 C 100.900 162.116,101.000 162.397,101.000 162.488 C 101.000 162.579,101.050 162.684,101.111 162.722 C 101.172 162.760,101.222 162.890,101.222 163.010 C 101.222 163.131,101.292 163.256,101.377 163.289 C 101.463 163.321,101.566 163.570,101.606 163.841 C 101.655 164.162,101.755 164.373,101.896 164.448 C 102.014 164.511,102.111 164.635,102.111 164.723 C 102.111 164.811,102.230 165.147,102.376 165.469 C 102.522 165.792,102.703 166.218,102.778 166.417 C 102.854 166.615,102.960 166.778,103.013 166.778 C 103.067 166.778,103.111 166.871,103.111 166.985 C 103.111 167.099,103.211 167.319,103.333 167.475 C 103.456 167.630,103.556 167.811,103.556 167.877 C 103.556 167.943,103.706 168.240,103.889 168.538 C 104.072 168.836,104.222 169.162,104.222 169.261 C 104.222 169.361,104.322 169.505,104.444 169.581 C 104.567 169.658,104.667 169.830,104.667 169.965 C 104.667 170.099,104.713 170.238,104.770 170.273 C 104.827 170.308,105.018 170.624,105.194 170.974 C 105.370 171.324,105.572 171.711,105.642 171.833 C 105.712 171.956,105.896 172.343,106.050 172.694 C 106.214 173.067,106.400 173.333,106.498 173.333 C 106.591 173.333,106.667 173.404,106.667 173.491 C 106.667 173.703,107.022 174.367,107.194 174.478 C 107.271 174.527,107.333 174.631,107.333 174.711 C 107.333 174.790,107.433 174.945,107.556 175.056 C 107.678 175.166,107.778 175.345,107.778 175.454 C 107.778 175.562,107.853 175.726,107.944 175.817 C 108.036 175.909,108.111 176.045,108.111 176.120 C 108.111 176.194,108.275 176.460,108.475 176.711 C 108.675 176.962,108.963 177.428,109.114 177.746 C 109.265 178.065,109.476 178.356,109.583 178.393 C 109.690 178.429,109.778 178.550,109.778 178.661 C 109.778 178.771,109.853 178.924,109.944 179.000 C 110.036 179.076,110.111 179.206,110.111 179.289 C 110.111 179.372,110.236 179.521,110.389 179.621 C 110.542 179.721,110.667 179.891,110.667 179.999 C 110.667 180.107,110.742 180.257,110.833 180.333 C 110.925 180.409,111.000 180.520,111.000 180.578 C 111.000 180.637,111.175 180.898,111.389 181.159 C 111.603 181.420,111.778 181.685,111.778 181.748 C 111.778 181.810,111.858 181.928,111.956 182.010 C 112.054 182.091,112.178 182.272,112.231 182.412 C 112.284 182.552,112.392 182.667,112.470 182.667 C 112.548 182.667,112.673 182.804,112.748 182.972 C 112.885 183.283,113.233 183.765,113.583 184.131 C 113.690 184.242,113.778 184.371,113.778 184.418 C 113.778 184.464,113.903 184.637,114.056 184.802 C 114.208 184.967,114.333 185.143,114.333 185.195 C 114.333 185.305,114.621 185.701,114.972 186.077 C 115.110 186.223,115.222 186.374,115.222 186.411 C 115.222 186.448,115.410 186.663,115.639 186.889 C 116.163 187.405,116.287 187.569,116.381 187.864 C 116.422 187.994,116.553 188.131,116.672 188.168 C 116.791 188.206,116.890 188.296,116.891 188.369 C 116.894 188.519,118.266 190.120,118.508 190.255 C 118.595 190.304,118.667 190.417,118.667 190.506 C 118.667 190.594,118.718 190.667,118.781 190.667 C 118.843 190.667,118.941 190.788,118.997 190.937 C 119.054 191.086,119.252 191.320,119.439 191.458 C 119.625 191.596,119.778 191.750,119.778 191.801 C 119.778 191.851,120.103 192.218,120.500 192.615 C 120.897 193.012,121.222 193.367,121.222 193.402 C 121.222 193.438,121.794 194.042,122.493 194.746 C 123.192 195.449,123.792 196.099,123.827 196.190 C 123.862 196.280,123.990 196.381,124.112 196.412 C 124.234 196.444,124.336 196.527,124.338 196.596 C 124.341 196.666,124.537 196.872,124.774 197.056 C 125.011 197.239,125.267 197.501,125.343 197.639 C 125.420 197.776,125.574 197.889,125.685 197.889 C 125.797 197.889,125.889 197.960,125.889 198.048 C 125.889 198.213,125.926 198.254,126.666 198.889 C 127.138 199.294,128.439 200.509,129.111 201.173 C 129.325 201.384,129.562 201.556,129.637 201.556 C 129.713 201.556,130.113 201.880,130.526 202.277 C 130.940 202.673,131.332 202.998,131.399 202.999 C 131.465 203.000,131.715 203.198,131.954 203.440 C 132.193 203.682,132.516 204.007,132.671 204.162 C 132.826 204.318,133.021 204.444,133.105 204.444 C 133.188 204.444,133.439 204.636,133.661 204.869 C 133.883 205.103,134.223 205.364,134.416 205.450 C 134.609 205.535,134.828 205.719,134.902 205.858 C 134.977 205.997,135.108 206.111,135.193 206.111 C 135.366 206.111,136.378 206.914,136.700 207.306 C 136.813 207.443,137.014 207.557,137.147 207.559 C 137.292 207.560,137.500 207.714,137.667 207.942 C 137.831 208.167,138.081 208.354,138.278 208.397 C 138.461 208.438,138.822 208.666,139.081 208.903 C 139.339 209.139,139.622 209.333,139.709 209.333 C 139.796 209.333,140.042 209.508,140.256 209.722 C 140.533 209.999,140.743 210.111,140.989 210.111 C 141.178 210.111,141.333 210.163,141.333 210.226 C 141.333 210.429,142.000 211.000,142.238 211.000 C 142.364 211.000,142.566 211.125,142.687 211.278 C 142.807 211.431,142.955 211.556,143.016 211.556 C 143.077 211.556,143.202 211.631,143.294 211.722 C 143.385 211.814,143.551 211.889,143.661 211.889 C 144.195 211.889,144.138 212.117,142.880 215.010 C 142.205 216.563,140.625 220.258,139.370 223.222 C 135.922 231.361,135.104 233.127,132.457 238.137 C 127.209 248.070,125.513 250.949,119.610 259.944 C 114.577 267.613,108.828 275.220,100.339 285.444 C 98.233 287.981,95.660 291.081,94.622 292.333 C 92.585 294.792,91.024 296.628,88.672 299.333 C 83.135 305.700,78.055 310.742,72.051 315.831 C 71.259 316.502,69.836 317.728,68.889 318.554 C 66.110 320.979,63.180 323.292,60.376 325.274 C 56.671 327.893,47.772 336.345,44.637 340.222 C 40.264 345.632,40.152 345.779,38.663 348.111 C 36.840 350.966,36.642 351.273,36.449 351.556 C 36.190 351.933,35.134 353.631,34.860 354.111 C 34.737 354.325,34.387 354.950,34.082 355.500 C 33.776 356.050,33.003 357.375,32.363 358.444 C 31.724 359.514,31.008 360.714,30.772 361.111 C 29.503 363.249,26.772 369.295,26.499 370.568 C 26.371 371.169,25.280 374.139,24.004 377.362 C 23.390 378.913,23.222 379.461,23.221 379.918 C 23.220 380.238,23.146 380.625,23.057 380.778 C 22.012 382.568,22.102 383.564,23.430 384.945 C 24.473 386.029,25.765 386.339,26.838 385.764 L 27.278 385.527 202.344 385.552 L 377.410 385.577 377.968 385.294 C 378.938 384.802,379.535 383.924,379.549 382.969 C 379.554 382.634,379.633 382.481,379.937 382.214 C 381.028 381.256,381.166 379.996,380.386 378.103 C 379.503 375.961,378.326 372.787,377.608 370.611 C 376.489 367.219,374.664 363.337,372.437 359.611 C 371.815 358.572,370.734 356.726,370.034 355.509 C 367.942 351.875,364.451 346.473,362.954 344.556 C 357.579 337.669,354.223 334.174,347.291 328.240 C 346.138 327.252,345.119 326.444,345.029 326.444 C 344.938 326.444,344.632 326.253,344.349 326.019 C 344.065 325.785,343.583 325.426,343.278 325.221 C 342.317 324.577,338.105 321.337,336.935 320.342 C 322.781 308.311,320.181 305.635,305.680 288.184 C 287.761 266.617,279.564 254.513,269.778 235.167 C 267.889 231.431,267.344 230.220,264.076 222.500 C 262.886 219.689,261.356 216.117,260.677 214.563 L 259.442 211.737 259.741 211.425 C 259.906 211.253,260.369 210.908,260.770 210.658 C 261.676 210.094,262.679 209.395,262.949 209.139 C 263.029 209.063,263.144 209.000,263.204 209.000 C 263.407 209.000,264.222 208.406,264.222 208.258 C 264.222 208.177,264.324 208.111,264.448 208.111 C 264.572 208.111,264.702 208.036,264.738 207.944 C 264.773 207.853,264.854 207.778,264.918 207.778 C 264.982 207.778,265.198 207.653,265.399 207.500 C 265.599 207.347,265.806 207.222,265.860 207.222 C 265.913 207.222,266.129 207.044,266.339 206.826 C 266.550 206.608,266.888 206.351,267.092 206.254 C 267.295 206.157,267.538 205.960,267.632 205.817 C 267.726 205.673,267.898 205.556,268.013 205.556 C 268.128 205.556,268.222 205.481,268.222 205.389 C 268.222 205.297,268.316 205.222,268.432 205.222 C 268.547 205.222,268.723 205.097,268.823 204.944 C 268.923 204.792,269.066 204.665,269.141 204.664 C 269.317 204.660,270.222 203.832,270.222 203.675 C 270.222 203.609,270.315 203.556,270.429 203.556 C 270.543 203.556,270.729 203.431,270.844 203.278 C 270.959 203.125,271.099 203.000,271.155 203.000 C 271.212 203.000,271.546 202.725,271.898 202.389 C 272.251 202.053,272.614 201.778,272.706 201.778 C 272.799 201.778,272.906 201.678,272.944 201.556 C 272.983 201.433,273.083 201.333,273.166 201.333 C 273.250 201.333,273.559 201.080,273.853 200.770 C 274.148 200.460,274.506 200.159,274.650 200.102 C 274.793 200.044,274.936 199.898,274.968 199.776 C 275.000 199.655,275.073 199.556,275.130 199.556 C 275.187 199.556,276.014 198.781,276.967 197.833 C 277.921 196.886,278.715 196.111,278.732 196.111 C 278.783 196.111,279.889 195.018,279.889 194.968 C 279.889 194.942,280.339 194.470,280.889 193.919 C 281.439 193.368,281.889 192.882,281.889 192.839 C 281.889 192.723,282.141 192.497,282.366 192.412 C 282.476 192.370,282.639 192.161,282.729 191.946 C 282.818 191.731,282.954 191.554,283.029 191.551 C 283.157 191.547,283.347 191.320,284.149 190.207 C 284.323 189.967,284.585 189.691,284.732 189.594 C 284.880 189.498,285.000 189.337,285.001 189.237 C 285.001 189.137,285.177 188.936,285.391 188.790 C 285.606 188.644,285.810 188.409,285.846 188.268 C 285.881 188.127,286.030 187.933,286.177 187.837 C 286.324 187.740,286.444 187.590,286.444 187.503 C 286.444 187.416,286.617 187.213,286.829 187.051 C 287.040 186.890,287.246 186.656,287.285 186.532 C 287.325 186.407,287.527 186.157,287.734 185.975 C 287.941 185.793,288.111 185.577,288.111 185.496 C 288.111 185.415,288.176 185.283,288.256 185.202 C 288.504 184.950,289.381 183.766,289.547 183.459 C 289.634 183.298,289.871 182.992,290.074 182.778 C 290.277 182.564,290.443 182.276,290.443 182.139 C 290.444 182.001,290.511 181.889,290.592 181.889 C 290.785 181.889,291.176 181.456,291.274 181.135 C 291.316 180.996,291.459 180.763,291.592 180.618 C 292.016 180.155,292.111 180.013,292.111 179.845 C 292.111 179.754,292.311 179.449,292.556 179.167 C 292.800 178.884,293.000 178.568,293.000 178.464 C 293.000 178.361,293.093 178.218,293.206 178.147 C 293.433 178.005,293.889 177.200,293.889 176.941 C 293.889 176.851,293.938 176.778,293.999 176.778 C 294.130 176.778,294.598 176.058,294.722 175.667 C 294.770 175.514,294.902 175.324,295.016 175.244 C 295.129 175.164,295.222 175.032,295.222 174.952 C 295.222 174.871,295.297 174.743,295.389 174.667 C 295.481 174.591,295.556 174.384,295.556 174.209 C 295.556 173.994,295.612 173.889,295.728 173.889 C 295.823 173.889,295.972 173.717,296.060 173.508 C 296.147 173.298,296.270 173.095,296.332 173.057 C 296.394 173.018,296.444 172.888,296.444 172.767 C 296.444 172.645,296.495 172.486,296.557 172.412 C 297.025 171.853,297.334 171.386,297.334 171.235 C 297.335 171.136,297.510 170.836,297.723 170.568 C 297.937 170.299,298.111 169.994,298.111 169.889 C 298.111 169.655,298.726 168.473,299.007 168.165 C 299.119 168.043,299.245 167.730,299.286 167.471 C 299.328 167.212,299.405 167.000,299.459 167.000 C 299.512 167.000,299.556 166.945,299.556 166.877 C 299.556 166.810,299.681 166.606,299.833 166.424 C 299.986 166.243,300.113 165.985,300.115 165.853 C 300.117 165.720,300.192 165.514,300.281 165.395 C 300.371 165.277,300.444 165.042,300.444 164.873 C 300.444 164.705,300.519 164.525,300.611 164.473 C 300.807 164.364,301.222 163.587,301.222 163.331 C 301.222 163.233,301.296 163.057,301.385 162.938 C 301.475 162.819,301.550 162.566,301.552 162.375 C 301.554 162.184,301.631 161.965,301.722 161.889 C 301.814 161.813,301.889 161.689,301.889 161.615 C 301.889 161.540,301.989 161.388,302.111 161.278 C 302.233 161.167,302.334 160.997,302.334 160.899 C 302.334 160.802,302.403 160.592,302.486 160.433 C 302.569 160.274,302.671 159.913,302.714 159.630 C 302.756 159.347,302.838 159.087,302.895 159.052 C 302.953 159.016,303.000 158.894,303.000 158.780 C 303.000 158.667,303.037 158.557,303.083 158.537 C 303.236 158.469,303.785 157.264,303.852 156.849 C 303.889 156.623,303.962 156.412,304.015 156.380 C 304.068 156.347,304.111 156.127,304.111 155.891 C 304.111 155.655,304.184 155.321,304.273 155.148 C 304.362 154.975,304.569 154.545,304.732 154.192 C 304.895 153.840,305.072 153.524,305.125 153.491 C 305.179 153.458,305.222 153.240,305.222 153.007 C 305.222 152.765,305.294 152.523,305.389 152.444 C 305.491 152.360,305.556 152.117,305.556 151.820 C 305.556 151.552,305.602 151.333,305.660 151.333 C 305.717 151.333,305.795 151.096,305.832 150.806 C 305.870 150.515,305.948 150.191,306.006 150.085 C 306.064 149.979,306.111 149.722,306.111 149.514 C 306.111 149.306,306.186 148.993,306.277 148.818 C 306.368 148.643,306.443 148.313,306.444 148.083 C 306.444 147.854,306.482 147.667,306.528 147.667 C 306.660 147.667,307.111 146.611,307.111 146.303 C 307.111 146.151,307.181 145.969,307.267 145.898 C 307.353 145.827,307.448 145.558,307.478 145.301 C 307.534 144.826,307.735 144.014,307.896 143.611 C 307.945 143.489,308.017 143.102,308.056 142.752 C 308.095 142.401,308.173 142.086,308.230 142.051 C 308.287 142.016,308.333 141.762,308.333 141.486 C 308.333 141.211,308.380 140.897,308.438 140.790 C 308.496 140.682,308.578 139.948,308.621 139.158 C 308.664 138.368,308.746 137.692,308.802 137.655 C 308.859 137.618,308.931 137.368,308.962 137.099 C 308.993 136.831,309.048 136.536,309.084 136.444 C 309.198 136.156,309.447 134.860,309.516 134.193 C 309.553 133.840,309.626 133.525,309.680 133.492 C 309.819 133.406,309.802 131.695,309.661 131.608 C 309.580 131.558,309.580 131.493,309.661 131.396 C 309.725 131.318,309.809 131.010,309.849 130.711 C 309.888 130.412,309.970 130.103,310.032 130.024 C 310.095 129.944,310.149 129.162,310.155 128.246 C 310.162 127.347,310.200 126.561,310.240 126.499 C 310.390 126.270,310.484 125.461,310.517 124.111 C 310.558 122.450,310.559 122.324,310.548 118.167 C 310.545 117.006,310.547 115.918,310.551 115.750 C 310.581 114.510,310.498 112.573,310.412 112.486 C 310.369 112.443,310.333 112.019,310.333 111.544 C 310.333 111.028,310.283 110.649,310.209 110.603 C 310.125 110.551,310.110 110.279,310.162 109.753 C 310.224 109.118,310.205 108.943,310.056 108.778 C 309.936 108.646,309.915 108.553,309.993 108.504 C 310.145 108.410,310.146 107.606,309.994 107.322 C 309.930 107.202,309.853 106.773,309.824 106.369 C 309.795 105.965,309.737 105.580,309.696 105.513 C 309.655 105.446,309.608 105.091,309.592 104.724 C 309.529 103.275,309.468 102.757,309.348 102.637 C 309.279 102.568,309.222 102.249,309.222 101.929 C 309.222 101.608,309.179 101.320,309.126 101.287 C 309.073 101.255,309.005 100.877,308.975 100.449 C 308.944 100.020,308.855 99.592,308.776 99.498 C 308.661 99.359,308.660 99.275,308.773 99.065 C 308.890 98.845,308.880 98.756,308.706 98.490 C 308.593 98.317,308.489 97.999,308.476 97.782 C 308.424 96.920,308.310 96.260,308.153 95.915 C 308.063 95.716,308.019 95.503,308.057 95.442 C 308.095 95.381,308.048 95.173,307.952 94.982 C 307.856 94.790,307.778 94.510,307.778 94.360 C 307.778 93.996,307.454 92.750,307.325 92.617 C 307.268 92.559,307.222 92.331,307.222 92.110 C 307.222 91.890,307.149 91.612,307.059 91.493 C 306.969 91.375,306.894 91.096,306.892 90.875 C 306.890 90.647,306.813 90.408,306.714 90.326 C 306.592 90.225,306.558 90.076,306.603 89.835 C 306.645 89.613,306.609 89.411,306.504 89.272 C 306.414 89.153,306.339 88.945,306.337 88.809 C 306.335 88.673,306.237 88.390,306.119 88.180 C 306.001 87.970,305.931 87.696,305.964 87.571 C 305.999 87.438,305.927 87.209,305.789 87.016 C 305.661 86.836,305.556 86.596,305.556 86.483 C 305.557 86.220,305.193 85.178,305.083 85.130 C 305.037 85.109,305.000 84.933,305.000 84.738 C 305.000 84.542,304.932 84.284,304.850 84.164 C 304.767 84.043,304.666 83.730,304.625 83.467 C 304.551 82.990,304.525 82.917,304.183 82.261 C 304.082 82.068,304.000 81.751,304.000 81.556 C 304.000 81.292,303.942 81.186,303.771 81.142 C 303.624 81.103,303.566 81.022,303.607 80.914 C 303.643 80.822,303.599 80.636,303.511 80.501 C 303.422 80.365,303.314 80.060,303.271 79.822 C 303.228 79.584,303.157 79.339,303.112 79.278 C 303.067 79.217,302.998 79.029,302.958 78.861 C 302.918 78.693,302.836 78.556,302.776 78.556 C 302.716 78.556,302.666 78.418,302.666 78.250 C 302.666 78.082,302.591 77.801,302.499 77.626 C 302.408 77.451,302.333 77.239,302.333 77.155 C 302.333 77.071,302.233 76.939,302.111 76.863 C 301.989 76.787,301.889 76.615,301.889 76.481 C 301.889 76.347,301.814 76.163,301.722 76.071 C 301.631 75.980,301.556 75.811,301.556 75.696 C 301.556 75.581,301.482 75.390,301.392 75.271 C 301.303 75.153,301.228 74.970,301.226 74.865 C 301.221 74.623,300.814 73.835,300.604 73.661 C 300.516 73.588,300.444 73.447,300.444 73.348 C 300.443 73.248,300.368 73.023,300.277 72.848 C 300.186 72.673,300.111 72.452,300.111 72.357 C 300.111 72.262,300.042 72.105,299.957 72.009 C 299.872 71.912,299.668 71.558,299.503 71.222 C 299.339 70.886,299.164 70.534,299.116 70.441 C 299.068 70.347,298.994 70.113,298.951 69.921 C 298.909 69.728,298.803 69.511,298.715 69.439 C 298.627 69.366,298.556 69.238,298.556 69.154 C 298.556 69.070,298.458 68.941,298.339 68.867 C 298.179 68.767,298.153 68.694,298.240 68.589 C 298.327 68.485,298.311 68.429,298.182 68.379 C 298.085 68.342,297.859 68.002,297.680 67.623 C 297.501 67.244,297.275 66.868,297.177 66.787 C 297.080 66.706,297.000 66.583,297.000 66.514 C 297.000 66.445,296.904 66.189,296.785 65.944 C 296.666 65.700,296.488 65.309,296.387 65.077 C 296.287 64.844,296.134 64.626,296.047 64.593 C 295.960 64.559,295.889 64.474,295.889 64.404 C 295.889 64.205,295.347 63.236,295.096 62.984 C 294.971 62.860,294.796 62.600,294.706 62.407 C 294.485 61.933,294.301 61.617,294.111 61.389 C 293.920 61.158,293.736 60.843,293.512 60.361 C 293.420 60.163,293.264 60.000,293.165 60.000 C 293.038 60.000,293.005 59.937,293.053 59.786 C 293.092 59.664,293.059 59.533,292.977 59.480 C 292.808 59.373,292.334 58.715,292.333 58.588 C 292.333 58.540,292.133 58.236,291.888 57.914 C 291.644 57.592,291.444 57.250,291.444 57.154 C 291.444 57.058,291.344 56.953,291.222 56.921 C 291.100 56.889,291.000 56.826,291.000 56.780 C 291.000 56.597,290.165 55.444,290.032 55.444 C 289.953 55.444,289.889 55.346,289.889 55.226 C 289.889 55.106,289.789 54.954,289.667 54.889 C 289.544 54.823,289.444 54.714,289.444 54.646 C 289.444 54.579,289.269 54.259,289.056 53.937 C 288.842 53.615,288.667 53.318,288.667 53.277 C 288.667 53.236,288.367 52.895,288.000 52.520 C 287.633 52.144,287.333 51.771,287.333 51.692 C 287.333 51.613,287.263 51.522,287.178 51.489 C 287.092 51.456,286.996 51.329,286.964 51.206 C 286.932 51.084,286.802 50.956,286.675 50.923 C 286.548 50.890,286.444 50.789,286.444 50.699 C 286.444 50.489,285.651 49.455,285.485 49.449 C 285.416 49.447,285.332 49.341,285.299 49.214 C 285.266 49.087,285.138 48.957,285.015 48.925 C 284.887 48.891,284.763 48.739,284.725 48.570 C 284.689 48.403,284.297 47.915,283.830 47.456 C 283.374 47.006,283.000 46.581,283.000 46.510 C 283.000 46.440,282.825 46.217,282.611 46.015 C 282.397 45.814,282.222 45.603,282.222 45.547 C 282.222 45.490,282.147 45.444,282.056 45.444 C 281.964 45.444,281.889 45.393,281.889 45.330 C 281.889 45.266,281.751 45.076,281.583 44.906 C 281.415 44.736,281.166 44.463,281.029 44.299 C 280.891 44.134,280.704 44.000,280.612 44.000 C 280.520 44.000,280.444 43.938,280.443 43.861 C 280.442 43.785,280.292 43.553,280.109 43.346 C 279.927 43.139,279.778 42.924,279.778 42.868 C 279.778 42.812,279.628 42.714,279.444 42.650 C 279.261 42.586,279.111 42.489,279.111 42.434 C 279.111 42.378,278.824 42.057,278.472 41.719 C 278.121 41.381,277.783 41.054,277.722 40.991 C 277.661 40.929,277.490 40.768,277.343 40.633 C 277.196 40.499,276.996 40.295,276.899 40.181 C 276.802 40.066,276.655 39.916,276.572 39.847 C 276.489 39.779,276.107 39.410,275.722 39.028 C 275.337 38.646,274.967 38.333,274.900 38.333 C 274.833 38.333,274.778 38.262,274.778 38.174 C 274.778 38.086,274.578 37.874,274.335 37.702 C 274.091 37.530,273.863 37.302,273.828 37.195 C 273.792 37.088,273.635 36.968,273.478 36.929 C 273.321 36.890,273.019 36.665,272.806 36.429 C 272.593 36.193,272.351 36.000,272.267 36.000 C 272.184 36.000,272.034 35.875,271.934 35.722 C 271.834 35.569,271.698 35.444,271.632 35.444 C 271.514 35.444,271.044 35.032,270.462 34.417 C 270.303 34.249,270.136 34.111,270.091 34.111 C 270.046 34.111,269.795 33.912,269.533 33.668 C 269.270 33.424,268.999 33.224,268.930 33.224 C 268.861 33.223,268.604 33.022,268.359 32.778 C 268.115 32.533,267.851 32.333,267.774 32.333 C 267.696 32.333,267.442 32.133,267.209 31.889 C 266.977 31.644,266.710 31.444,266.616 31.444 C 266.521 31.444,266.444 31.368,266.444 31.274 C 266.444 31.177,266.212 31.000,265.906 30.865 C 265.611 30.733,265.323 30.524,265.268 30.399 C 265.212 30.274,265.004 30.126,264.806 30.070 C 264.607 30.014,264.444 29.925,264.444 29.873 C 264.444 29.821,264.375 29.778,264.291 29.778 C 264.206 29.778,264.055 29.653,263.955 29.500 C 263.855 29.347,263.678 29.222,263.563 29.222 C 263.447 29.222,263.136 29.024,262.871 28.781 C 262.606 28.538,262.284 28.338,262.156 28.336 C 261.914 28.333,261.637 28.080,261.523 27.756 C 261.485 27.648,261.280 27.535,261.044 27.491 C 260.783 27.441,260.518 27.282,260.318 27.055 C 260.121 26.831,259.861 26.673,259.625 26.635 C 259.396 26.598,259.091 26.417,258.850 26.176 C 258.596 25.922,258.346 25.778,258.162 25.778 C 257.973 25.778,257.713 25.623,257.418 25.333 C 257.169 25.089,256.860 24.888,256.732 24.887 C 256.605 24.886,256.303 24.712,256.061 24.502 C 255.820 24.291,255.495 24.091,255.339 24.057 C 255.183 24.023,254.836 23.821,254.568 23.608 C 254.299 23.396,254.011 23.222,253.927 23.222 C 253.842 23.222,253.575 23.097,253.333 22.944 C 253.091 22.792,252.860 22.667,252.818 22.667 C 252.777 22.667,252.588 22.548,252.398 22.404 C 252.209 22.259,251.891 22.105,251.693 22.061 C 251.495 22.018,251.333 21.936,251.333 21.880 C 251.333 21.824,251.278 21.778,251.210 21.778 C 251.143 21.778,250.939 21.653,250.758 21.500 C 250.576 21.347,250.331 21.222,250.212 21.222 C 250.094 21.222,249.910 21.175,249.804 21.116 C 249.698 21.058,249.411 20.923,249.167 20.817 C 248.922 20.710,248.697 20.595,248.667 20.561 C 248.541 20.423,247.857 20.111,247.679 20.111 C 247.573 20.111,247.390 20.038,247.271 19.948 C 247.153 19.858,246.979 19.783,246.886 19.781 C 246.792 19.779,246.632 19.679,246.528 19.559 C 246.425 19.438,246.202 19.306,246.031 19.264 C 245.861 19.223,245.624 19.122,245.503 19.039 C 245.383 18.956,245.151 18.889,244.988 18.889 C 244.639 18.889,244.263 18.708,243.892 18.361 C 243.745 18.224,243.497 18.110,243.340 18.108 C 243.184 18.106,242.958 18.031,242.840 17.941 C 242.721 17.851,242.459 17.778,242.257 17.778 C 242.054 17.778,241.889 17.728,241.889 17.667 C 241.889 17.606,241.796 17.556,241.682 17.556 C 241.568 17.556,241.347 17.456,241.192 17.333 C 241.037 17.211,240.842 17.111,240.759 17.111 C 240.676 17.111,240.421 17.011,240.193 16.889 C 239.965 16.767,239.709 16.667,239.624 16.667 C 239.539 16.667,239.327 16.592,239.152 16.501 C 238.977 16.409,238.674 16.334,238.479 16.334 C 238.284 16.334,238.093 16.283,238.056 16.222 C 238.018 16.161,237.877 16.110,237.743 16.109 C 237.610 16.107,237.375 16.008,237.222 15.889 C 237.069 15.769,236.867 15.670,236.772 15.669 C 236.678 15.668,236.538 15.605,236.462 15.529 C 236.335 15.402,235.971 15.291,234.667 14.983 C 234.392 14.919,234.119 14.821,234.061 14.766 C 234.003 14.711,233.771 14.667,233.546 14.667 C 233.321 14.667,232.993 14.592,232.818 14.501 C 232.643 14.409,232.313 14.334,232.083 14.334 C 231.854 14.334,231.667 14.283,231.667 14.222 C 231.667 14.161,231.488 14.111,231.270 14.111 C 231.052 14.111,230.798 14.036,230.706 13.944 C 230.615 13.853,230.431 13.777,230.298 13.775 C 230.164 13.774,229.931 13.675,229.778 13.556 C 229.625 13.436,229.337 13.337,229.139 13.336 C 228.940 13.334,228.778 13.285,228.778 13.226 C 228.778 13.167,228.527 13.085,228.220 13.045 C 227.913 13.004,227.636 12.930,227.605 12.879 C 227.574 12.829,227.249 12.754,226.883 12.713 C 226.517 12.671,226.190 12.594,226.158 12.541 C 226.125 12.488,225.879 12.444,225.611 12.444 C 225.343 12.444,225.094 12.396,225.058 12.337 C 225.021 12.277,224.742 12.196,224.437 12.155 C 224.133 12.115,223.857 12.038,223.824 11.985 C 223.791 11.932,223.496 11.889,223.167 11.889 C 222.838 11.889,222.538 11.839,222.500 11.778 C 222.462 11.717,222.182 11.667,221.878 11.667 C 221.036 11.667,219.180 11.442,219.061 11.325 C 219.003 11.269,218.719 11.222,218.429 11.222 C 218.139 11.222,217.873 11.175,217.837 11.118 C 217.802 11.060,217.536 10.982,217.247 10.945 C 216.959 10.908,216.645 10.836,216.551 10.786 C 216.392 10.701,215.535 10.614,213.611 10.488 C 212.359 10.406,211.730 10.319,211.617 10.211 C 211.559 10.156,211.231 10.111,210.889 10.111 C 210.546 10.111,210.206 10.050,210.131 9.975 C 210.023 9.868,209.948 9.868,209.777 9.975 C 209.515 10.139,208.000 10.160,208.000 10.000 C 208.000 9.854,206.035 9.853,205.945 9.999 C 205.903 10.066,205.776 10.042,205.613 9.935 C 205.385 9.786,198.675 9.592,198.528 9.730 " stroke="none" fill="#FFFFFF" fill-rule="evenodd"></path></g></svg>