<svg id="svg" xmlns="http://www.w3.org/2000/svg" xmlns:xlink="http://www.w3.org/1999/xlink" width="100%" height="100%" viewBox="0, 0, 400,400"><g id="svgg"><path id="path0" d="M199.139 14.067 C 196.762 16.361,196.614 16.562,194.145 20.889 C 188.610 30.588,186.005 36.290,180.998 49.667 C 178.433 56.519,177.308 59.744,176.445 62.722 C 175.470 66.087,175.399 66.487,175.272 69.356 L 175.200 70.989 175.588 71.634 C 175.802 71.988,176.124 72.603,176.304 73.000 C 176.629 73.719,177.403 75.103,179.783 79.222 C 182.283 83.549,184.025 87.369,186.095 93.061 L 186.663 94.621 186.124 95.894 C 185.827 96.594,185.248 98.092,184.836 99.222 C 178.161 117.566,171.578 127.460,157.278 140.640 C 153.442 144.175,144.837 151.139,143.474 151.811 L 143.003 152.043 141.750 151.197 C 136.491 147.650,134.269 145.466,130.870 140.500 C 126.011 133.402,122.599 121.473,123.449 114.553 C 123.852 111.272,125.250 107.727,127.375 104.600 C 127.850 103.901,128.026 104.335,123.772 95.722 C 119.351 86.770,113.369 77.636,108.376 72.210 C 107.904 71.697,107.223 70.903,106.863 70.444 C 106.088 69.458,105.363 68.778,105.087 68.778 C 104.978 68.778,104.889 68.728,104.889 68.667 C 104.889 68.604,104.582 68.556,104.189 68.556 C 103.385 68.556,103.342 68.590,101.931 70.335 C 101.511 70.855,101.129 71.280,101.084 71.279 C 100.974 71.277,99.137 74.035,98.087 75.778 C 93.143 83.989,86.553 101.691,85.492 109.611 L 85.299 111.056 86.158 112.439 C 87.082 113.926,87.363 114.424,87.400 114.632 C 87.412 114.705,87.811 115.455,88.285 116.299 C 94.748 127.795,97.315 139.397,95.434 148.611 C 94.385 153.748,93.379 156.746,90.865 162.222 C 90.290 163.475,89.372 165.516,88.826 166.757 L 87.833 169.015 87.556 168.660 C 84.182 164.345,79.140 155.401,76.723 149.444 C 72.922 140.076,70.519 131.918,68.720 122.278 C 67.592 116.229,67.235 114.778,66.877 114.778 C 66.822 114.778,66.778 114.713,66.778 114.633 C 66.778 113.424,62.843 112.319,62.506 113.434 C 60.840 118.944,58.821 131.138,57.896 141.278 C 57.064 150.394,56.700 163.603,56.999 173.833 C 57.829 202.225,63.021 235.200,69.053 250.386 C 70.600 254.279,70.458 254.093,73.000 255.563 C 73.886 256.076,74.661 256.557,74.722 256.633 C 75.111 257.113,82.333 260.361,85.000 261.255 C 90.175 262.988,99.953 264.627,110.333 265.502 C 113.519 265.770,120.596 266.074,121.029 265.960 C 121.311 265.886,121.279 265.914,120.438 266.458 C 115.422 269.703,108.365 273.672,103.722 275.858 C 93.063 280.878,74.197 287.491,65.285 289.331 C 61.250 290.164,60.106 290.564,59.194 291.463 C 58.835 291.818,58.556 292.192,58.556 292.318 C 58.556 292.441,58.506 292.573,58.444 292.611 C 57.908 292.943,58.577 295.213,59.466 296.076 C 59.947 296.544,65.745 299.366,68.611 300.528 C 75.000 303.117,83.919 304.540,93.889 304.560 L 96.167 304.564 89.611 307.870 C 78.840 313.301,72.200 317.107,65.833 321.501 C 64.856 322.176,63.356 323.171,62.500 323.712 C 60.168 325.187,58.070 326.788,56.885 327.996 C 56.303 328.590,55.378 329.465,54.830 329.940 C 51.196 333.094,46.881 337.447,44.637 340.222 C 40.264 345.632,40.152 345.779,38.663 348.111 C 36.840 350.966,36.642 351.273,36.449 351.556 C 36.190 351.933,35.134 353.631,34.860 354.111 C 34.737 354.325,34.387 354.950,34.082 355.500 C 33.776 356.050,33.003 357.375,32.363 358.444 C 31.724 359.514,31.008 360.714,30.772 361.111 C 29.503 363.249,26.772 369.295,26.499 370.568 C 26.371 371.169,25.280 374.139,24.004 377.362 C 23.390 378.913,23.222 379.461,23.221 379.918 C 23.220 380.238,23.146 380.625,23.057 380.778 C 22.012 382.568,22.102 383.564,23.430 384.945 C 24.473 386.029,25.765 386.339,26.838 385.764 L 27.278 385.527 202.344 385.552 L 377.410 385.577 377.968 385.294 C 378.938 384.802,379.535 383.924,379.549 382.969 C 379.554 382.634,379.633 382.481,379.937 382.214 C 381.028 381.256,381.166 379.996,380.386 378.103 C 379.503 375.961,378.326 372.787,377.608 370.611 C 376.489 367.219,374.664 363.337,372.437 359.611 C 371.815 358.572,370.734 356.726,370.034 355.509 C 367.942 351.875,364.451 346.473,362.954 344.556 C 357.579 337.669,354.223 334.174,347.291 328.240 C 345.954 327.096,345.105 326.444,344.948 326.444 C 344.813 326.444,344.186 326.062,343.554 325.594 C 342.921 325.126,341.701 324.295,340.841 323.748 C 339.981 323.201,338.728 322.374,338.056 321.911 C 331.052 317.080,323.831 312.935,312.748 307.382 L 307.108 304.556 309.359 304.555 C 315.661 304.555,323.091 303.822,327.444 302.771 C 332.237 301.613,334.670 300.671,342.056 297.114 C 344.267 296.049,344.944 295.214,344.944 293.556 C 344.944 291.311,343.661 290.503,338.327 289.390 C 334.474 288.586,330.694 287.552,326.217 286.076 C 308.002 280.071,296.731 275.134,286.222 268.555 C 285.764 268.268,284.668 267.588,283.786 267.044 L 282.184 266.056 285.397 265.984 C 292.305 265.831,304.097 264.489,311.111 263.057 C 316.336 261.991,319.219 261.089,323.422 259.205 C 325.224 258.397,328.784 256.587,328.897 256.421 C 328.932 256.370,329.741 255.766,330.694 255.080 C 332.590 253.716,333.014 253.262,333.606 251.964 C 337.321 243.810,341.824 223.390,343.936 205.111 C 345.990 187.334,346.723 173.046,346.334 158.389 C 345.956 144.163,345.342 137.681,343.047 123.677 C 342.532 120.536,342.111 117.853,342.111 117.714 C 342.111 117.576,342.058 117.445,341.994 117.424 C 341.929 117.402,341.678 116.586,341.435 115.609 C 340.855 113.280,340.621 113.000,339.247 113.000 C 338.066 113.000,336.444 113.945,336.444 114.633 C 336.444 114.713,336.400 114.778,336.346 114.778 C 335.987 114.778,335.630 116.229,334.502 122.278 C 333.064 129.985,332.184 133.377,329.784 140.469 C 326.479 150.237,324.535 154.529,319.911 162.278 C 318.218 165.115,315.581 168.960,315.433 168.809 C 315.385 168.761,314.849 167.597,314.241 166.222 C 313.633 164.847,312.699 162.772,312.167 161.611 C 309.523 155.848,307.979 150.655,307.379 145.509 C 306.456 137.590,309.403 126.282,314.969 116.389 C 315.519 115.411,316.009 114.486,316.056 114.333 C 316.104 114.181,316.253 113.881,316.387 113.667 C 316.521 113.453,316.939 112.722,317.316 112.043 L 318.003 110.808 317.784 109.321 C 317.278 105.883,316.658 103.626,314.295 96.611 C 310.893 86.514,307.359 78.853,303.299 72.780 C 302.747 71.954,302.232 71.228,302.155 71.167 C 302.079 71.106,301.706 70.631,301.328 70.111 C 300.188 68.548,300.198 68.556,299.271 68.556 C 298.353 68.556,298.373 68.541,296.653 70.387 C 296.141 70.935,295.697 71.385,295.666 71.387 C 295.478 71.394,292.875 74.402,291.481 76.222 C 287.120 81.914,282.856 88.825,279.450 95.722 C 275.036 104.658,275.336 103.840,276.094 104.875 C 276.817 105.864,277.805 107.532,277.735 107.645 C 277.704 107.695,277.847 108.089,278.053 108.519 C 280.305 113.234,280.461 118.805,278.548 126.222 C 275.977 136.192,270.958 144.259,264.222 149.246 C 262.517 150.509,260.325 152.000,260.174 152.000 C 259.548 152.000,250.563 144.793,246.056 140.675 C 231.960 127.796,225.232 117.704,218.536 99.389 C 218.111 98.228,217.517 96.691,217.215 95.973 C 216.623 94.565,216.616 94.537,216.770 94.248 C 216.826 94.142,217.057 93.531,217.283 92.889 C 218.893 88.313,221.165 83.303,223.329 79.556 C 225.826 75.233,227.036 73.051,227.061 72.828 C 227.075 72.703,227.347 72.132,227.665 71.559 C 228.316 70.387,228.300 70.591,227.929 68.130 C 227.834 67.499,227.781 66.889,227.811 66.774 C 228.089 65.710,224.850 56.110,219.976 43.556 C 216.058 33.463,208.656 18.709,206.747 17.187 C 206.301 16.831,205.462 15.707,203.848 13.303 L 202.973 12.000 202.125 12.002 L 201.278 12.004 199.139 14.067 " stroke="none" fill="#000000" fill-rule="evenodd"></path></g></svg>