<svg id="svg" xmlns="http://www.w3.org/2000/svg" xmlns:xlink="http://www.w3.org/1999/xlink" width="100%" height="100%" viewBox="0, 0, 400,400"><g id="svgg"><path id="path0" d="M213.056 9.076 C 211.712 9.376,211.505 9.512,209.413 11.468 C 206.905 13.813,204.243 16.432,203.630 17.160 C 203.375 17.462,202.336 18.487,201.320 19.438 C 200.305 20.389,198.629 21.967,197.597 22.944 C 193.813 26.528,190.224 29.895,188.056 31.895 C 186.835 33.022,181.842 37.869,176.963 42.667 C 152.088 67.120,147.195 72.365,136.432 86.111 C 132.891 90.633,129.889 94.887,123.809 104.000 C 119.547 110.388,114.597 118.600,110.112 126.722 C 109.605 127.639,108.955 128.814,108.666 129.334 C 94.775 154.299,89.327 185.540,92.449 222.333 C 94.409 245.437,100.528 265.454,111.419 284.389 C 112.368 286.039,113.243 287.564,113.362 287.778 C 114.588 289.962,116.371 292.942,117.153 294.111 C 117.616 294.803,118.378 295.728,119.028 296.384 L 120.124 297.490 119.946 297.956 C 119.085 300.209,115.322 305.132,112.556 307.622 C 105.539 313.939,97.847 317.295,81.278 321.268 C 79.628 321.664,76.703 322.368,74.778 322.834 C 63.313 325.605,59.728 326.444,59.353 326.444 C 59.121 326.444,58.834 326.518,58.716 326.608 C 58.597 326.697,58.397 326.772,58.272 326.774 C 57.526 326.786,56.196 327.881,55.953 328.684 C 55.866 328.970,55.561 329.313,54.833 329.941 C 51.274 333.016,46.887 337.439,44.637 340.222 C 40.264 345.632,40.152 345.779,38.663 348.111 C 36.840 350.966,36.642 351.273,36.449 351.556 C 36.190 351.933,35.134 353.631,34.860 354.111 C 34.737 354.325,34.387 354.950,34.082 355.500 C 33.776 356.050,33.003 357.375,32.363 358.444 C 31.724 359.514,31.008 360.714,30.772 361.111 C 29.503 363.249,26.772 369.295,26.499 370.568 C 26.371 371.169,25.280 374.139,24.004 377.362 C 23.390 378.913,23.222 379.461,23.221 379.918 C 23.220 380.238,23.146 380.625,23.057 380.778 C 22.012 382.568,22.102 383.564,23.430 384.945 C 24.473 386.029,25.765 386.339,26.838 385.764 L 27.278 385.527 202.344 385.552 L 377.410 385.577 377.968 385.294 C 378.938 384.802,379.535 383.924,379.549 382.969 C 379.554 382.634,379.633 382.481,379.937 382.214 C 381.028 381.256,381.166 379.996,380.386 378.103 C 379.503 375.961,378.326 372.787,377.608 370.611 C 376.489 367.219,374.664 363.337,372.437 359.611 C 371.815 358.572,370.734 356.726,370.034 355.509 C 367.942 351.875,364.451 346.473,362.954 344.556 C 357.579 337.669,354.223 334.174,347.291 328.240 L 345.194 326.444 344.372 326.444 C 343.550 326.444,343.550 326.444,343.484 326.116 C 343.309 325.241,342.216 324.455,340.706 324.120 C 339.731 323.903,332.047 322.062,324.667 320.278 C 322.742 319.813,319.817 319.108,318.167 318.712 C 298.340 313.958,289.701 309.490,282.575 300.301 L 281.990 299.547 282.760 298.690 C 283.689 297.657,284.073 297.123,287.000 292.796 C 288.253 290.944,289.997 288.420,290.877 287.187 C 295.917 280.119,298.206 275.956,302.832 265.444 C 305.914 258.440,306.745 256.032,308.486 249.056 C 310.881 239.462,311.934 233.580,313.885 218.889 C 315.450 207.109,315.750 195.218,314.774 183.778 C 313.341 167.004,311.480 153.450,309.382 144.521 C 306.403 131.837,301.228 119.352,294.798 109.333 C 294.033 108.142,293.096 106.658,292.715 106.037 C 291.701 104.381,288.165 99.568,287.888 99.466 C 287.767 99.421,279.952 103.716,279.444 104.106 C 279.231 104.270,278.256 104.946,277.278 105.609 C 268.247 111.724,257.328 122.603,249.484 133.302 C 238.985 147.621,232.221 159.443,226.658 173.192 L 225.769 175.389 225.835 174.056 C 226.385 162.999,228.069 154.201,232.153 141.056 C 236.825 126.016,245.269 109.160,254.444 96.556 C 256.345 93.945,258.420 91.300,264.952 83.167 C 270.494 76.267,271.033 75.550,270.901 75.259 C 270.720 74.862,264.757 64.559,263.356 62.222 C 257.347 52.201,242.213 32.793,232.556 22.723 C 231.669 21.799,229.973 20.021,228.785 18.771 C 224.018 13.757,220.284 10.218,219.132 9.622 C 218.222 9.151,214.295 8.798,213.056 9.076 " stroke="none" fill="#000000" fill-rule="evenodd"></path></g></svg>