<svg id="svg" xmlns="http://www.w3.org/2000/svg" xmlns:xlink="http://www.w3.org/1999/xlink" width="100%" height="100%" viewBox="0, 0, 400,400"><g id="svgg"><path id="path0" d="M252.565 6.266 C 251.953 6.464,251.143 7.270,250.918 7.903 C 250.806 8.220,250.604 8.533,250.444 8.637 C 249.984 8.938,249.556 9.513,249.556 9.829 C 249.556 9.923,249.516 10.000,249.467 10.000 C 249.418 10.000,249.317 10.356,249.243 10.792 C 248.177 17.007,238.639 31.025,232.198 35.842 C 223.628 42.252,213.941 44.845,195.278 45.723 C 182.629 46.319,177.219 47.323,167.722 50.838 C 160.995 53.328,149.637 58.731,146.983 60.703 C 146.680 60.927,146.339 61.111,146.223 61.111 C 146.108 61.111,145.982 61.161,145.944 61.222 C 145.907 61.283,145.789 61.333,145.684 61.333 C 144.727 61.333,143.348 64.695,144.111 65.167 C 144.172 65.204,144.222 65.332,144.222 65.451 C 144.222 65.570,144.262 65.667,144.311 65.667 C 144.489 65.667,144.662 66.417,144.773 67.667 C 145.058 70.891,145.317 78.240,145.139 78.056 C 144.588 77.484,142.914 74.788,139.934 69.668 C 137.303 65.147,136.955 64.778,135.323 64.778 C 134.124 64.778,132.778 65.687,132.778 66.496 C 132.778 66.590,132.728 66.667,132.667 66.667 C 132.606 66.667,132.556 66.790,132.556 66.942 C 132.556 67.140,132.455 67.268,132.194 67.402 C 128.277 69.415,115.965 80.332,107.457 89.335 C 99.270 98.001,98.667 98.662,98.348 99.326 C 98.097 99.848,98.018 101.044,98.210 101.418 C 98.401 101.790,98.664 102.403,99.345 104.056 C 99.723 104.972,100.354 106.497,100.748 107.444 C 103.041 112.959,104.467 117.688,106.896 127.833 C 107.647 130.972,109.198 139.061,109.073 139.186 C 109.062 139.197,108.248 138.247,107.263 137.075 C 105.328 134.773,101.541 130.397,99.170 127.722 C 95.832 123.958,90.696 119.250,88.976 118.377 C 88.271 118.020,86.833 117.997,86.137 118.333 C 85.884 118.456,85.549 118.556,85.393 118.556 C 84.390 118.556,83.960 119.006,79.498 124.722 C 78.592 125.883,77.046 127.808,76.063 129.000 C 69.818 136.569,66.255 142.168,60.332 153.722 C 59.580 155.189,58.692 156.889,58.358 157.500 C 57.371 159.308,56.130 161.833,55.579 163.155 L 55.065 164.389 55.080 165.923 C 55.088 166.767,55.142 167.517,55.199 167.590 C 55.256 167.663,55.333 167.847,55.369 168.000 C 55.406 168.153,56.001 168.853,56.693 169.556 C 57.518 170.394,58.656 171.770,60.003 173.555 C 61.132 175.052,62.759 177.152,63.618 178.222 C 66.314 181.577,69.685 186.142,71.741 189.222 C 74.347 193.126,78.326 199.860,82.803 207.944 C 83.108 208.494,83.460 209.119,83.586 209.333 L 83.814 209.722 83.435 209.382 C 80.630 206.868,79.890 206.241,77.333 204.209 C 75.445 202.708,71.863 200.014,69.889 198.609 C 69.125 198.066,66.950 196.496,65.056 195.122 C 59.328 190.965,55.044 188.104,52.278 186.587 C 47.487 183.960,47.997 184.193,46.909 184.133 C 46.305 184.100,45.941 184.126,45.859 184.208 C 45.790 184.277,45.651 184.333,45.551 184.333 C 45.141 184.333,43.889 185.855,43.889 186.353 C 43.889 186.402,43.706 186.680,43.483 186.971 C 42.609 188.110,34.274 205.554,31.391 212.278 C 30.293 214.840,28.537 219.227,27.500 221.999 C 27.055 223.191,26.255 225.292,25.723 226.667 C 21.251 238.229,16.163 253.108,14.171 260.444 C 10.477 274.051,8.625 282.923,7.285 293.444 C 6.501 299.604,6.513 300.253,7.433 301.210 C 7.824 301.617,8.658 302.111,8.954 302.111 C 9.029 302.111,9.638 302.604,10.309 303.206 C 11.717 304.469,14.026 306.459,15.944 308.063 C 25.538 316.085,32.042 319.553,42.500 322.223 C 43.722 322.535,44.781 322.809,44.853 322.833 C 44.933 322.859,44.676 323.388,44.195 324.188 C 38.173 334.203,28.421 356.443,25.959 365.778 C 25.250 368.466,23.528 377.275,23.157 380.111 C 23.108 380.486,22.998 380.791,22.873 380.901 C 22.521 381.209,22.333 381.837,22.333 382.705 C 22.333 385.360,25.196 386.983,27.389 385.571 C 27.450 385.532,106.225 385.525,202.444 385.556 C 316.368 385.592,377.537 385.573,377.815 385.502 C 378.724 385.270,379.666 384.013,379.667 383.032 C 379.667 382.574,379.710 382.471,379.977 382.292 C 381.161 381.500,381.283 380.046,380.357 377.768 C 379.467 375.579,378.291 372.403,377.789 370.833 C 376.684 367.376,374.778 363.337,372.258 359.111 C 371.402 357.675,370.336 355.850,369.890 355.056 C 369.444 354.261,368.520 352.736,367.836 351.667 C 367.152 350.597,366.139 349.012,365.583 348.144 C 362.652 343.560,357.345 337.313,352.644 332.911 C 345.194 325.935,338.371 320.806,329.600 315.588 C 317.900 308.628,318.593 309.013,310.411 304.932 C 297.432 298.458,291.396 295.580,287.722 294.112 C 286.492 293.620,280.695 291.003,277.977 289.712 C 276.615 289.065,274.450 288.059,273.167 287.477 C 264.720 283.646,257.959 279.843,246.333 272.386 C 239.059 267.719,235.861 265.328,228.667 259.177 C 221.290 252.870,217.229 248.853,213.040 243.722 C 212.231 242.731,209.632 239.111,208.096 236.833 C 205.434 232.888,204.248 230.967,200.796 225.007 C 200.455 224.419,200.481 224.433,202.049 225.695 C 210.780 232.723,225.754 235.192,236.524 231.379 C 239.932 230.173,243.917 228.050,248.500 225.000 C 254.779 220.821,258.705 219.198,264.106 218.549 C 270.241 217.812,279.127 222.924,282.753 229.278 C 283.137 229.951,283.672 230.797,283.943 231.158 C 284.213 231.520,284.408 231.859,284.375 231.912 C 284.306 232.022,285.106 233.111,285.256 233.111 C 285.311 233.111,285.112 233.399,284.814 233.750 C 284.516 234.101,283.786 234.989,283.191 235.722 C 282.596 236.456,281.639 237.594,281.064 238.253 C 278.573 241.108,277.438 243.292,277.447 245.217 C 277.450 245.862,277.404 246.673,277.345 247.021 C 276.477 252.078,277.527 257.008,280.891 263.660 C 284.052 269.911,286.855 273.590,291.611 277.726 C 294.926 280.610,295.614 281.011,297.222 281.000 C 298.119 280.993,298.425 281.042,299.254 281.327 C 302.252 282.356,311.646 283.642,318.778 284.000 C 323.357 284.230,332.684 284.117,337.038 283.779 C 338.268 283.684,338.369 283.691,338.587 283.894 C 338.715 284.013,338.910 284.111,339.021 284.111 C 339.132 284.111,339.222 284.168,339.222 284.236 C 339.222 284.490,341.527 284.290,342.304 283.970 C 345.213 282.769,353.190 277.761,358.114 274.045 C 365.862 268.197,370.487 264.071,377.124 257.083 C 379.942 254.117,380.852 253.222,381.056 253.222 C 381.201 253.222,381.351 253.172,381.389 253.111 C 381.427 253.050,381.553 253.000,381.671 253.000 C 382.045 253.000,383.055 251.896,383.196 251.332 C 384.109 247.692,384.117 239.215,383.216 232.114 C 382.251 224.513,380.558 219.439,376.586 212.233 C 373.808 207.195,373.230 206.489,371.019 205.436 C 369.412 204.671,367.343 203.444,364.782 201.739 C 363.772 201.066,361.269 199.419,359.222 198.079 C 346.032 189.447,336.901 181.031,332.555 173.500 C 328.563 166.582,325.093 154.146,324.061 143.056 C 323.666 138.811,323.474 130.148,323.769 129.853 C 324.148 129.474,323.831 127.739,323.267 127.102 C 323.181 127.006,323.111 126.820,323.111 126.689 C 323.111 126.056,322.031 124.817,321.270 124.579 C 321.030 124.503,320.233 124.272,319.500 124.064 C 315.065 122.809,305.551 117.900,297.899 112.917 C 295.073 111.076,294.760 110.868,292.944 109.618 C 286.829 105.407,281.765 101.199,275.295 94.951 C 272.194 91.957,272.431 92.408,273.154 90.873 C 273.481 90.179,273.974 89.036,274.250 88.333 C 274.527 87.631,275.204 85.906,275.756 84.500 C 277.628 79.735,278.392 76.918,279.599 70.332 C 280.968 62.865,281.631 51.891,281.019 46.833 C 279.966 38.137,277.531 31.070,272.991 23.532 C 269.576 17.863,268.386 16.366,264.428 12.756 C 261.954 10.500,260.948 9.789,258.149 8.316 C 257.099 7.764,256.484 7.364,256.182 7.038 C 255.378 6.169,253.861 5.845,252.565 6.266 " stroke="none" fill="#000000" fill-rule="evenodd"></path></g></svg>